<?xml version="1.0" encoding="UTF-8" standalone="no"?>
<svg
   xmlns:dc="http://purl.org/dc/elements/1.1/"
   xmlns:cc="http://creativecommons.org/ns#"
   xmlns:rdf="http://www.w3.org/1999/02/22-rdf-syntax-ns#"
   xmlns:svg="http://www.w3.org/2000/svg"
   xmlns="http://www.w3.org/2000/svg"
   xmlns:sodipodi="http://sodipodi.sourceforge.net/DTD/sodipodi-0.dtd"
   xmlns:inkscape="http://www.inkscape.org/namespaces/inkscape"
   version="1.2"
   width="800px"
   height="290px"
   viewBox="0 500 800 290"
   id="svg77"
   sodipodi:docname="Development_of_Bible_Students_ko.svg"
   inkscape:version="1.0.2-2 (e86c870879, 2021-01-15)">
  <metadata
     id="metadata81">
    <rdf:RDF>
      <cc:Work
         rdf:about="">
        <dc:format>image/svg+xml</dc:format>
        <dc:type
           rdf:resource="http://purl.org/dc/dcmitype/StillImage" />
        <dc:title></dc:title>
      </cc:Work>
    </rdf:RDF>
  </metadata>
  <sodipodi:namedview
     pagecolor="#ffffff"
     bordercolor="#666666"
     borderopacity="1"
     objecttolerance="10"
     gridtolerance="10"
     guidetolerance="10"
     inkscape:pageopacity="0"
     inkscape:pageshadow="2"
     inkscape:window-width="1920"
     inkscape:window-height="1057"
     id="namedview79"
     showgrid="false"
     inkscape:snap-text-baseline="true"
     inkscape:zoom="1.5208438"
     inkscape:cx="334.62847"
     inkscape:cy="159.64034"
     inkscape:window-x="-8"
     inkscape:window-y="-8"
     inkscape:window-maximized="1"
     inkscape:current-layer="svg77"
     inkscape:document-rotation="0"
     inkscape:snap-global="false" />
  <defs
     id="defs2" />
  <path
     style="fill:none;stroke:#008000;stroke-width:5.58456;stroke-linecap:butt;stroke-linejoin:miter;stroke-miterlimit:4"
     d="m 413.3034,675.46777 86.39412,71.3956 m 113.00746,0 H 226.67949 L 102.67129,640.3137"
     id="path4"
     sodipodi:nodetypes="ccccc" />
  <path
     style="fill:none;stroke:#ff0000;stroke-width:6;stroke-linecap:butt;stroke-linejoin:miter;stroke-miterlimit:4"
     d="m 412.39319,675.38107 h 201"
     id="path8" />
  <path
     style="fill:none;stroke:#0099ff;stroke-width:5.363;stroke-linecap:butt;stroke-linejoin:miter;stroke-miterlimit:4;stroke-dasharray:none"
     d="M 284.68559,640.58071 499.4325,602.32743 m -87.06593,73.4481 87.06593,-73.4481 h 114.08639"
     id="path6"
     sodipodi:nodetypes="ccccc" />
  <path
     style="fill:none;stroke:#ff00ff;stroke-width:5.05169;stroke-linecap:butt;stroke-linejoin:miter;stroke-miterlimit:4"
     d="m 282.26365,640.63285 82.86077,-99.08089 h 248.40492"
     id="path10" />
  <g
     aria-label="평신도가정선교운동"
     id="text152"
     style="font-style:normal;font-variant:normal;font-weight:500;font-stretch:normal;font-size:18.6667px;line-height:1.25;font-family:'Noto Sans CJK KR';-inkscape-font-specification:'Noto Sans CJK KR Medium';fill:#000000;fill-opacity:1;stroke:none">
    <path
       d="m 634.61739,544.01066 h 1.92267 v -10.36002 h -1.92267 v 2.87467 h -2.44534 v 1.54934 h 2.44534 v 1.53067 h -2.44534 v 1.54933 h 2.44534 z m -8.21335,-7.59735 h 2.14667 v 5.07735 c -0.728,0.0373 -1.43733,0.056 -2.14667,0.0747 z m 5.89868,4.77868 c -0.616,0.0747 -1.25067,0.14933 -1.904,0.168 v -4.94668 h 1.512 v -1.568 h -8.88535 v 1.568 h 1.53067 v 5.18935 c -0.69067,0 -1.36267,0 -1.97867,0 l 0.224,1.58667 c 2.70667,0 6.44001,-0.056 9.61335,-0.59734 z m -1.38134,7.84001 c -2.408,0 -3.752,-0.57867 -3.752,-1.60533 0,-1.06401 1.344,-1.62401 3.752,-1.62401 2.40801,0 3.77068,0.56 3.77068,1.62401 0,1.02666 -1.36267,1.60533 -3.77068,1.60533 z m 0,-4.72267 c -3.528,0 -5.67467,1.13867 -5.67467,3.11734 0,1.94133 2.14667,3.08 5.67467,3.08 3.52801,0 5.69335,-1.13867 5.69335,-3.08 0,-1.97867 -2.16534,-3.11734 -5.69335,-3.11734 z"
       style="font-style:normal;font-variant:normal;font-weight:500;font-stretch:normal;font-size:18.6667px;font-family:'Noto Sans CJK KR';-inkscape-font-specification:'Noto Sans CJK KR Medium';fill:#ff00ff"
       id="path1064" />
    <path
       d="m 653.63872,533.66931 h -1.92267 v 12.32002 h 1.92267 z m -3.67734,8.13868 c -2.59467,-0.896 -4.06934,-3.15467 -4.06934,-5.54401 v -1.68 h -1.96 v 1.68 c 0,2.464 -1.47467,4.87201 -4.12534,5.84268 l 0.98933,1.54933 c 1.97867,-0.74667 3.37868,-2.27733 4.14401,-4.16267 0.728,1.75467 2.10934,3.136 4.03201,3.84534 z m -5.39467,6.81335 v -3.78935 h -1.94134 v 5.35735 h 11.49869 v -1.568 z"
       style="font-style:normal;font-variant:normal;font-weight:500;font-stretch:normal;font-size:18.6667px;font-family:'Noto Sans CJK KR';-inkscape-font-specification:'Noto Sans CJK KR Medium';fill:#ff00ff"
       id="path1066" />
    <path
       d="m 665.49204,546.904 v -3.97601 h 4.98401 v -1.54933 h -9.76268 v -4.90935 h 9.61335 v -1.54933 H 658.7907 v 8.00801 h 4.77867 v 3.97601 h -6.64534 v 1.58667 h 15.26936 V 546.904 Z"
       style="font-style:normal;font-variant:normal;font-weight:500;font-stretch:normal;font-size:18.6667px;font-family:'Noto Sans CJK KR';-inkscape-font-specification:'Noto Sans CJK KR Medium';fill:#ff00ff"
       id="path1068" />
    <path
       d="m 674.91869,535.42398 v 1.568 h 5.89868 c -0.392,3.88267 -2.61334,6.85068 -6.73868,8.96002 l 1.064,1.47467 c 5.50668,-2.78134 7.59735,-7.11202 7.59735,-12.00269 z m 14.78403,4.87201 h -2.55734 v -6.66402 h -1.92267 v 16.85604 h 1.92267 v -8.58669 h 2.55734 z"
       style="font-style:normal;font-variant:normal;font-weight:500;font-stretch:normal;font-size:18.6667px;font-family:'Noto Sans CJK KR';-inkscape-font-specification:'Noto Sans CJK KR Medium';fill:#ff00ff"
       id="path1070" />
    <path
       d="m 700.32404,537.88798 v 1.56801 h 2.98667 v 4.23734 h 1.92267 v -10.04269 h -1.92267 v 4.23734 z m 0.97067,3.75201 c -2.52001,-0.87734 -3.95734,-2.96801 -3.95734,-5.07734 v -0.224 h 3.50934 v -1.54934 h -9.01602 v 1.54934 h 3.56534 v 0.24266 c 0,2.31467 -1.512,4.55468 -4.12534,5.48801 l 0.98933,1.53067 c 1.99734,-0.70933 3.41601,-2.20267 4.16268,-4.05067 0.70933,1.624 2.05334,2.94934 3.92001,3.60267 z m -1.66134,7.39201 c -2.408,0 -3.77067,-0.59733 -3.77067,-1.69867 0,-1.10133 1.36267,-1.69867 3.77067,-1.69867 2.37067,0 3.75201,0.59734 3.75201,1.69867 0,1.10134 -1.38134,1.69867 -3.75201,1.69867 z m 0,-4.89067 c -3.52801,0 -5.69334,1.19467 -5.69334,3.192 0,2.01601 2.16533,3.19201 5.69334,3.19201 3.50934,0 5.67468,-1.176 5.67468,-3.19201 0,-1.99733 -2.16534,-3.192 -5.67468,-3.192 z"
       style="font-style:normal;font-variant:normal;font-weight:500;font-stretch:normal;font-size:18.6667px;font-family:'Noto Sans CJK KR';-inkscape-font-specification:'Noto Sans CJK KR Medium';fill:#ff00ff"
       id="path1072" />
    <path
       d="m 720.48404,546.19466 h 1.92267 v -12.54402 h -1.92267 v 3.78934 h -3.416 v 1.58667 h 3.416 z m -2.09067,-4.144 c -2.52,-0.91467 -3.93867,-3.09868 -3.93867,-5.37601 v -1.99734 h -1.96 v 1.96 c 0,2.50134 -1.45601,4.87201 -4.08801,5.80535 l 1.02667,1.49333 c 1.94133,-0.74666 3.34134,-2.24 4.088,-4.12534 0.70934,1.69867 2.03467,3.06134 3.84534,3.73334 z m -5.02134,6.57068 v -3.75201 h -1.94134 v 5.32001 h 11.36802 v -1.568 z"
       style="font-style:normal;font-variant:normal;font-weight:500;font-stretch:normal;font-size:18.6667px;font-family:'Noto Sans CJK KR';-inkscape-font-specification:'Noto Sans CJK KR Medium';fill:#ff00ff"
       id="path1074" />
    <path
       d="m 737.34003,536.99198 c 0,2.05334 0,4.33068 -0.59733,7.41068 l 1.92267,0.224 c 0.59733,-3.26667 0.59733,-5.52534 0.59733,-7.63468 v -1.77334 h -12.13335 v 1.56801 h 10.21068 z m -2.14667,9.72535 v -5.45067 h -1.904 v 5.45067 h -2.25867 v -5.45067 h -1.904 v 5.45067 h -3.50934 v 1.58667 h 15.23202 v -1.58667 z"
       style="font-style:normal;font-variant:normal;font-weight:500;font-stretch:normal;font-size:18.6667px;font-family:'Noto Sans CJK KR';-inkscape-font-specification:'Noto Sans CJK KR Medium';fill:#ff00ff"
       id="path1076" />
    <path
       d="m 750.40669,535.57331 c 2.37067,0 3.92001,0.69067 3.92001,1.88534 0,1.19467 -1.54934,1.88534 -3.92001,1.88534 -2.38934,0 -3.93867,-0.69067 -3.93867,-1.88534 0,-1.19467 1.54933,-1.88534 3.93867,-1.88534 z m 0,5.32001 c 3.60268,0 5.97335,-1.32533 5.97335,-3.43467 0,-2.10934 -2.37067,-3.43467 -5.97335,-3.43467 -3.62134,0 -5.97334,1.32533 -5.97334,3.43467 0,2.10934 2.352,3.43467 5.97334,3.43467 z m -3.808,4.31201 h -1.94134 v 4.98401 h 11.72269 v -1.568 h -9.78135 z m -3.82668,-3.17334 v 1.568 h 6.79468 v 3.19201 h 1.96 v -3.19201 h 6.53335 v -1.568 z"
       style="font-style:normal;font-variant:normal;font-weight:500;font-stretch:normal;font-size:18.6667px;font-family:'Noto Sans CJK KR';-inkscape-font-specification:'Noto Sans CJK KR Medium';fill:#ff00ff"
       id="path1078" />
    <path
       d="m 767.54269,549.032 c -2.464,0 -3.84534,-0.54133 -3.84534,-1.58667 0,-1.02667 1.38134,-1.58667 3.84534,-1.58667 2.46401,0 3.86401,0.56 3.86401,1.58667 0,1.04534 -1.4,1.58667 -3.86401,1.58667 z m 0,-4.64801 c -3.60267,0 -5.80534,1.12001 -5.80534,3.06134 0,1.96001 2.20267,3.08001 5.80534,3.08001 3.62134,0 5.80534,-1.12 5.80534,-3.08001 0,-1.94133 -2.184,-3.06134 -5.80534,-3.06134 z m 1.008,-2.59467 v -1.68 h 4.90934 v -1.54934 h -9.68801 v -2.632 h 9.57601 v -1.53067 h -11.48002 v 5.71201 h 4.76001 v 1.68 h -6.64534 v 1.56801 h 15.23202 v -1.56801 z"
       style="font-style:normal;font-variant:normal;font-weight:500;font-stretch:normal;font-size:18.6667px;font-family:'Noto Sans CJK KR';-inkscape-font-specification:'Noto Sans CJK KR Medium';fill:#ff00ff"
       id="path1080" />
  </g>
  <g
     aria-label="연합성서연구생"
     id="text152-9"
     style="font-style:normal;font-variant:normal;font-weight:500;font-stretch:normal;font-size:18.6667px;line-height:1.25;font-family:'Noto Sans CJK KR';-inkscape-font-specification:'Noto Sans CJK KR Medium';fill:#000000;fill-opacity:1;stroke:none">
    <path
       d="m 623.83706,598.57722 c 0,-1.53067 1.10134,-2.57601 2.57601,-2.57601 1.43734,0 2.53867,1.04534 2.53867,2.57601 0,1.568 -1.10133,2.61334 -2.53867,2.61334 -1.47467,0 -2.57601,-1.04534 -2.57601,-2.61334 z m 9.98669,-1.25067 v 2.50134 h -3.22934 c 0.13067,-0.392 0.18667,-0.80267 0.18667,-1.25067 0,-0.448 -0.056,-0.85867 -0.18667,-1.25067 z m 0,4.06934 v 4.27467 h 1.92267 v -12.39468 h -1.92267 v 2.48267 h -4.05067 c -0.78401,-0.896 -1.97867,-1.45601 -3.36001,-1.45601 -2.50134,0 -4.40534,1.79201 -4.40534,4.27468 0,2.48267 1.904,4.27467 4.40534,4.27467 1.38134,0.0187 2.576,-0.54133 3.36001,-1.456 z m -7.07468,6.83201 v -3.808 h -1.92267 v 5.37601 h 11.34935 v -1.56801 z"
       style="font-style:normal;font-variant:normal;font-weight:500;font-stretch:normal;font-size:18.6667px;font-family:'Noto Sans CJK KR';-inkscape-font-specification:'Noto Sans CJK KR Medium';fill:#0099ff"
       id="path1083" />
    <path
       d="m 648.92508,594.86255 h -4.01334 v -1.75467 h -1.92267 v 1.75467 h -4.01335 v 1.54933 h 9.94936 z m -7.22402,5.13334 c 0,-0.952 0.896,-1.53067 2.24001,-1.53067 1.344,0 2.25867,0.57867 2.25867,1.53067 0,0.97067 -0.91467,1.54933 -2.25867,1.54933 -1.34401,0 -2.24001,-0.57866 -2.24001,-1.54933 z m 6.32801,0 c 0,-1.77334 -1.64267,-2.96801 -4.088,-2.96801 -2.42667,0 -4.08801,1.19467 -4.08801,2.96801 0,1.792 1.66134,2.98667 4.08801,2.98667 2.44533,0 4.088,-1.19467 4.088,-2.98667 z m 2.18401,8.38135 h -6.96268 v -1.54934 h 6.96268 z m 0,-3.04268 h -6.96268 v -1.54933 h -1.904 v 6.12268 h 10.77068 v -6.12268 h -1.904 z m 4.29334,-7.87734 h -2.38934 v -4.20001 h -1.92267 v 9.83735 h 1.92267 v -4.05067 h 2.38934 z"
       style="font-style:normal;font-variant:normal;font-weight:500;font-stretch:normal;font-size:18.6667px;font-family:'Noto Sans CJK KR';-inkscape-font-specification:'Noto Sans CJK KR Medium';fill:#0099ff"
       id="path1085" />
    <path
       d="m 668.17041,603.18789 h 1.92267 v -9.94935 h -1.92267 v 3.37867 h -3.41601 v 1.56801 h 3.41601 z m -2.03467,-2.184 c -2.55734,-0.84 -3.95734,-2.94934 -3.95734,-5.28268 v -1.568 h -1.94134 v 1.66134 c 0,2.464 -1.47467,4.74134 -4.18134,5.65601 l 1.008,1.54933 c 2.03467,-0.728 3.45334,-2.20267 4.20001,-4.06934 0.728,1.64267 2.03467,2.91201 3.84534,3.56534 z m -1.66134,7.59735 c -2.38933,0 -3.752,-0.616 -3.752,-1.71734 0,-1.10134 1.36267,-1.71734 3.752,-1.71734 2.38934,0 3.77068,0.616 3.77068,1.71734 0,1.10134 -1.38134,1.71734 -3.77068,1.71734 z m 0,-4.94668 c -3.50934,0 -5.67467,1.19467 -5.67467,3.22934 0,2.03467 2.16533,3.22934 5.67467,3.22934 3.52801,0 5.69335,-1.19467 5.69335,-3.22934 0,-2.03467 -2.16534,-3.22934 -5.69335,-3.22934 z"
       style="font-style:normal;font-variant:normal;font-weight:500;font-stretch:normal;font-size:18.6667px;font-family:'Noto Sans CJK KR';-inkscape-font-specification:'Noto Sans CJK KR Medium';fill:#0099ff"
       id="path1087" />
    <path
       d="m 679.40773,594.61988 h -1.94134 v 2.78134 c 0,3.15467 -1.64267,6.40267 -4.27467,7.69068 l 1.21333,1.53067 c 1.92267,-0.98934 3.30401,-2.94934 4.05068,-5.33868 0.728,2.25867 2.09067,4.10667 3.99467,5.05868 l 1.13867,-1.54934 c -2.57601,-1.19467 -4.18134,-4.25601 -4.18134,-7.39201 z m 5.95468,-1.4 v 5.54401 h -3.60268 v 1.568 h 3.60268 v 9.80002 h 1.94133 v -16.91203 z"
       style="font-style:normal;font-variant:normal;font-weight:500;font-stretch:normal;font-size:18.6667px;font-family:'Noto Sans CJK KR';-inkscape-font-specification:'Noto Sans CJK KR Medium';fill:#0099ff"
       id="path1089" />
    <path
       d="m 692.53039,598.57722 c 0,-1.53067 1.10133,-2.57601 2.576,-2.57601 1.43734,0 2.53867,1.04534 2.53867,2.57601 0,1.568 -1.10133,2.61334 -2.53867,2.61334 -1.47467,0 -2.576,-1.04534 -2.576,-2.61334 z m 9.98668,-1.25067 v 2.50134 h -3.22934 c 0.13067,-0.392 0.18667,-0.80267 0.18667,-1.25067 0,-0.448 -0.056,-0.85867 -0.18667,-1.25067 z m 0,4.06934 v 4.27467 h 1.92267 v -12.39468 h -1.92267 v 2.48267 h -4.05067 c -0.784,-0.896 -1.97867,-1.45601 -3.36001,-1.45601 -2.50134,0 -4.40534,1.79201 -4.40534,4.27468 0,2.48267 1.904,4.27467 4.40534,4.27467 1.38134,0.0187 2.57601,-0.54133 3.36001,-1.456 z m -7.07468,6.83201 v -3.808 h -1.92267 v 5.37601 h 11.34936 v -1.56801 z"
       style="font-style:normal;font-variant:normal;font-weight:500;font-stretch:normal;font-size:18.6667px;font-family:'Noto Sans CJK KR';-inkscape-font-specification:'Noto Sans CJK KR Medium';fill:#0099ff"
       id="path1091" />
    <path
       d="m 722.90108,601.48922 h -2.35201 c 0.42934,-2.38933 0.42934,-4.144 0.42934,-5.73067 v -1.47467 h -11.49869 v 1.54933 h 9.61335 c 0,1.54934 0,3.30401 -0.48534,5.65601 h -10.95735 v 1.58667 h 6.58935 v 7.03735 h 1.94133 v -7.03735 h 6.72002 z"
       style="font-style:normal;font-variant:normal;font-weight:500;font-stretch:normal;font-size:18.6667px;font-family:'Noto Sans CJK KR';-inkscape-font-specification:'Noto Sans CJK KR Medium';fill:#0099ff"
       id="path1093" />
    <path
       d="m 735.48239,599.15589 h 1.77334 v 4.46134 h 1.82933 v -10.34135 h -1.82933 v 4.312 h -1.77334 v -4.01334 h -1.81067 v 9.50135 h 1.81067 z m -2.20267,1.82933 c -2.184,-0.85867 -3.28534,-2.70667 -3.28534,-4.57334 v -2.128 h -1.86667 v 2.128 c 0,1.92267 -1.13867,4.03201 -3.39734,5.05868 l 1.008,1.47467 c 1.62401,-0.70934 2.72534,-2.01601 3.34134,-3.56534 0.63467,1.344 1.68001,2.464 3.17334,3.04267 z m 0.18667,7.65335 c -2.37067,0 -3.78934,-0.57867 -3.78934,-1.60534 0,-1.04533 1.41867,-1.624 3.78934,-1.624 2.37067,0 3.78934,0.57867 3.78934,1.624 0,1.02667 -1.41867,1.60534 -3.78934,1.60534 z m 0,-4.70401 c -3.50934,0 -5.71201,1.15734 -5.71201,3.09867 0,1.92267 2.20267,3.08001 5.71201,3.08001 3.50934,0 5.71201,-1.15734 5.71201,-3.08001 0,-1.94133 -2.20267,-3.09867 -5.71201,-3.09867 z"
       style="font-style:normal;font-variant:normal;font-weight:500;font-stretch:normal;font-size:18.6667px;font-family:'Noto Sans CJK KR';-inkscape-font-specification:'Noto Sans CJK KR Medium';fill:#0099ff"
       id="path1095" />
  </g>
  <g
     aria-label="여호와의 증인
워치타워협회"
     id="text208"
     style="font-style:normal;font-variant:normal;font-weight:500;font-stretch:normal;font-size:18.6667px;line-height:1.15;font-family:'Noto Sans CJK KR';-inkscape-font-specification:'Noto Sans CJK KR Medium';fill:#ff0000;fill-opacity:1;stroke:none">
    <path
       d="m 631.03455,664.98996 c 0.0933,-0.54133 0.14934,-1.10134 0.14934,-1.736 0,-0.70934 -0.0747,-1.34401 -0.20534,-1.96001 h 3.45334 v 3.69601 z m -4.12534,2.50134 c -1.43733,0 -2.44533,-1.58667 -2.44533,-4.23734 0,-2.61334 1.008,-4.20001 2.44533,-4.20001 1.45601,0 2.44534,1.58667 2.44534,4.20001 0,2.65067 -0.98933,4.23734 -2.44534,4.23734 z m 7.52268,-11.42402 v 3.64 h -3.976 c -0.76534,-1.512 -2.01601,-2.38933 -3.54668,-2.38933 -2.48267,0 -4.256,2.31467 -4.256,5.93601 0,3.65867 1.77333,5.95467 4.256,5.95467 1.60534,0 2.93068,-0.97066 3.64001,-2.632 h 3.88267 v 6.40268 h 1.94134 v -16.91203 z"
       style="font-style:normal;font-variant:normal;font-weight:500;font-stretch:normal;font-size:18.6667px;font-family:'Noto Sans CJK KR';-inkscape-font-specification:'Noto Sans CJK KR Medium'"
       id="path1098" />
    <path
       d="m 654.0319,658.38195 h -5.91735 v -2.07201 h -1.92267 v 2.07201 h -5.95468 v 1.54933 h 13.7947 z m -10.54669,5.74934 c 0,-1.10133 1.344,-1.736 3.64001,-1.736 2.31467,0 3.65867,0.63467 3.65867,1.736 0,1.12 -1.344,1.75467 -3.65867,1.75467 -2.29601,0 -3.64001,-0.63467 -3.64001,-1.75467 z m 4.62934,5.39468 v -2.16534 c 2.89334,-0.224 4.62934,-1.36267 4.62934,-3.22934 0,-2.03467 -2.16533,-3.22934 -5.61867,-3.22934 -3.43468,0 -5.60001,1.19467 -5.60001,3.22934 0,1.86667 1.77333,3.02401 4.66667,3.22934 v 2.16534 h -6.66401 v 1.58667 h 15.28803 v -1.58667 z"
       style="font-style:normal;font-variant:normal;font-weight:500;font-stretch:normal;font-size:18.6667px;font-family:'Noto Sans CJK KR';-inkscape-font-specification:'Noto Sans CJK KR Medium'"
       id="path1100" />
    <path
       d="m 659.07187,661.18195 c 0,-1.47467 1.12,-2.408 2.65067,-2.408 1.53067,0 2.63201,0.93333 2.63201,2.408 0,1.47467 -1.10134,2.38934 -2.63201,2.38934 -1.53067,0 -2.65067,-0.91467 -2.65067,-2.38934 z m 3.62134,3.95734 c 2.09067,-0.37333 3.52801,-1.88533 3.52801,-3.95734 0,-2.38933 -1.90401,-4.05067 -4.49868,-4.05067 -2.59467,0 -4.51734,1.66134 -4.51734,4.05067 0,2.07201 1.47467,3.60268 3.56534,3.97601 v 2.65067 c -1.512,0.0373 -2.96801,0.0373 -4.23734,0.0373 l 0.26133,1.58666 c 2.89334,0 6.75735,-0.0187 10.28535,-0.63466 l -0.168,-1.41867 c -1.344,0.18666 -2.78133,0.29867 -4.21867,0.35467 z m 9.61335,-2.25867 h -2.48267 v -6.79468 h -1.92267 v 16.83737 h 1.92267 v -8.43735 h 2.48267 z"
       style="font-style:normal;font-variant:normal;font-weight:500;font-stretch:normal;font-size:18.6667px;font-family:'Noto Sans CJK KR';-inkscape-font-specification:'Noto Sans CJK KR Medium'"
       id="path1102" />
    <path
       d="m 679.3252,657.26195 c -2.632,0 -4.57334,1.66133 -4.57334,4.05067 0,2.38934 1.94134,4.05067 4.57334,4.05067 2.63201,0 4.59201,-1.66133 4.59201,-4.05067 0,-2.38934 -1.96,-4.05067 -4.59201,-4.05067 z m 0,1.64267 c 1.56801,0 2.70668,0.93333 2.70668,2.408 0,1.456 -1.13867,2.408 -2.70668,2.408 -1.54933,0 -2.688,-0.952 -2.688,-2.408 0,-1.47467 1.13867,-2.408 2.688,-2.408 z m 6.49602,-2.83734 v 16.89336 h 1.94133 v -16.89336 z m -11.61069,13.32802 c 2.98667,0 7.01868,-0.0373 10.73335,-0.74667 l -0.13067,-1.4 c -3.62134,0.54134 -7.82134,0.56 -10.84535,0.56 z"
       style="font-style:normal;font-variant:normal;font-weight:500;font-stretch:normal;font-size:18.6667px;font-family:'Noto Sans CJK KR';-inkscape-font-specification:'Noto Sans CJK KR Medium'"
       id="path1104" />
    <path
       d="m 697.73052,663.14196 c 2.94934,-0.31734 5.26401,-1.53067 6.17867,-3.26668 0.89601,1.73601 3.19201,2.94934 6.17868,3.26668 l 0.672,-1.49334 c -3.136,-0.31733 -5.32001,-1.66134 -5.56267,-3.192 h 4.94667 v -1.54934 h -12.45069 v 1.54934 h 4.90935 c -0.24267,1.53066 -2.42668,2.87467 -5.56268,3.192 z m 6.14134,8.28801 c -2.464,0 -3.84534,-0.54133 -3.84534,-1.568 0,-1.04534 1.38134,-1.58667 3.84534,-1.58667 2.46401,0 3.86401,0.54133 3.86401,1.58667 0,1.02667 -1.4,1.568 -3.86401,1.568 z m 0,-4.66667 c -3.60267,0 -5.80534,1.13867 -5.80534,3.09867 0,1.96 2.20267,3.08 5.80534,3.08 3.62134,0 5.80534,-1.12 5.80534,-3.08 0,-1.96 -2.184,-3.09867 -5.80534,-3.09867 z m -7.59735,-2.76267 v 1.54933 h 15.2507 v -1.54933 z"
       style="font-style:normal;font-variant:normal;font-weight:500;font-stretch:normal;font-size:18.6667px;font-family:'Noto Sans CJK KR';-inkscape-font-specification:'Noto Sans CJK KR Medium'"
       id="path1106" />
    <path
       d="m 727.35454,656.08594 h -1.92267 v 12.24536 h 1.92267 z m -11.68536,5.33868 c 0,-1.54934 1.10134,-2.55734 2.59467,-2.55734 1.47467,0 2.59468,1.008 2.59468,2.55734 0,1.53067 -1.12001,2.55734 -2.59468,2.55734 -1.49333,0 -2.59467,-1.02667 -2.59467,-2.55734 z m 7.05602,0 c 0,-2.464 -1.92267,-4.21867 -4.46135,-4.21867 -2.53867,0 -4.48,1.75467 -4.48,4.21867 0,2.44534 1.94133,4.21867 4.48,4.21867 2.53868,0 4.46135,-1.77333 4.46135,-4.21867 z m -4.44268,9.63202 v -3.95734 h -1.94134 v 5.52534 h 11.49869 v -1.568 z"
       style="font-style:normal;font-variant:normal;font-weight:500;font-stretch:normal;font-size:18.6667px;font-family:'Noto Sans CJK KR';-inkscape-font-specification:'Noto Sans CJK KR Medium'"
       id="path1108" />
    <path
       d="m 627.78655,679.79265 c 1.43733,0 2.44534,0.74667 2.44534,1.90401 0,1.176 -1.00801,1.904 -2.44534,1.904 -1.456,0 -2.46401,-0.728 -2.46401,-1.904 0,-1.15734 1.00801,-1.90401 2.46401,-1.90401 z m 0,5.30135 c 2.48267,0 4.25601,-1.36267 4.25601,-3.39734 0,-1.99734 -1.77334,-3.36001 -4.25601,-3.36001 -2.50134,0 -4.27468,1.36267 -4.27468,3.36001 0,2.03467 1.77334,3.39734 4.27468,3.39734 z m 5.50668,0.65333 c -3.64001,0.504 -7.82135,0.54133 -10.99469,0.54133 l 0.24267,1.58667 c 1.26933,0 2.688,-0.0187 4.18134,-0.0747 v 6.08534 h 1.92267 v -6.17868 c 1.58667,-0.0933 3.192,-0.26133 4.76001,-0.54133 z m 1.176,-8.19468 v 11.42402 h -3.60268 v 1.47467 h 3.60268 v 3.95734 h 1.94133 v -16.85603 z"
       style="font-style:normal;font-variant:normal;font-weight:500;font-stretch:normal;font-size:18.6667px;font-family:'Noto Sans CJK KR';-inkscape-font-specification:'Noto Sans CJK KR Medium'"
       id="path1110" />
    <path
       d="m 645.91188,681.93932 h 3.65867 v -1.54933 h -3.65867 v -2.50134 h -1.92267 v 2.50134 h -3.73334 v 1.54933 h 3.73334 v 0.97067 c 0,2.78134 -1.60534,5.63735 -4.25601,6.83201 l 1.064,1.47467 c 1.96001,-0.896 3.43468,-2.72533 4.18135,-4.96534 0.76533,2.10934 2.24,3.84534 4.16267,4.68534 l 1.02667,-1.49333 c -2.61334,-1.13867 -4.25601,-3.88268 -4.25601,-6.53335 z m 5.58134,-4.40534 v 16.85603 h 1.94134 v -16.85603 z"
       style="font-style:normal;font-variant:normal;font-weight:500;font-stretch:normal;font-size:18.6667px;font-family:'Noto Sans CJK KR';-inkscape-font-specification:'Noto Sans CJK KR Medium'"
       id="path1112" />
    <path
       d="m 659.3332,685.28066 h 5.63735 v -1.54933 h -5.63735 v -3.13601 h 5.95468 v -1.58667 h -7.87735 v 11.46136 h 1.36267 c 3.02401,0 5.26401,-0.0933 7.85868,-0.50401 l -0.18666,-1.568 c -2.37067,0.392 -4.42401,0.48534 -7.11202,0.504 z m 13.06669,-1.12 h -2.632 v -6.62668 h -1.92267 v 16.89337 h 1.92267 v -8.68002 h 2.632 z"
       style="font-style:normal;font-variant:normal;font-weight:500;font-stretch:normal;font-size:18.6667px;font-family:'Noto Sans CJK KR';-inkscape-font-specification:'Noto Sans CJK KR Medium'"
       id="path1114" />
    <path
       d="m 679.30654,679.79265 c 1.43733,0 2.44534,0.74667 2.44534,1.90401 0,1.176 -1.00801,1.904 -2.44534,1.904 -1.45601,0 -2.46401,-0.728 -2.46401,-1.904 0,-1.15734 1.008,-1.90401 2.46401,-1.90401 z m 0,5.30135 c 2.48267,0 4.25601,-1.36267 4.25601,-3.39734 0,-1.99734 -1.77334,-3.36001 -4.25601,-3.36001 -2.50134,0 -4.27468,1.36267 -4.27468,3.36001 0,2.03467 1.77334,3.39734 4.27468,3.39734 z m 5.50667,0.65333 c -3.64,0.504 -7.82134,0.54133 -10.99468,0.54133 l 0.24266,1.58667 c 1.26934,0 2.68801,-0.0187 4.18135,-0.0747 v 6.08534 h 1.92267 v -6.17868 c 1.58667,-0.0933 3.192,-0.26133 4.76,-0.54133 z m 1.17601,-8.19468 v 11.42402 h -3.60268 v 1.47467 h 3.60268 v 3.95734 h 1.94133 v -16.85603 z"
       style="font-style:normal;font-variant:normal;font-weight:500;font-stretch:normal;font-size:18.6667px;font-family:'Noto Sans CJK KR';-inkscape-font-specification:'Noto Sans CJK KR Medium'"
       id="path1116" />
    <path
       d="m 700.45588,679.12065 h -3.64001 v -1.736 h -1.92267 v 1.736 h -3.78934 v 1.53067 h 9.35202 z m -6.68268,5.26401 c 0,-0.98933 0.84,-1.60533 2.072,-1.60533 1.25067,0 2.09067,0.616 2.09067,1.60533 0,0.98934 -0.84,1.60534 -2.09067,1.60534 -1.232,0 -2.072,-0.616 -2.072,-1.60534 z m 5.95468,0 c 0,-1.82934 -1.58667,-3.04267 -3.88268,-3.04267 -2.27734,0 -3.86401,1.21333 -3.86401,3.04267 0,1.82934 1.58667,3.04267 3.86401,3.04267 2.29601,0 3.88268,-1.21333 3.88268,-3.04267 z m 3.39733,8.30668 h -7.26134 v -1.47467 h 7.26134 z m 0,-2.93067 h -7.26134 V 688.23 h -1.904 v 5.97335 h 11.06935 V 688.23 h -1.90401 z m -0.0187,-12.22669 v 3.78934 h -2.53867 v 1.56801 h 2.53867 v 1.736 h -2.57601 v 1.568 h 2.57601 v 1.36267 h 1.92267 v -10.02402 z"
       style="font-style:normal;font-variant:normal;font-weight:500;font-stretch:normal;font-size:18.6667px;font-family:'Noto Sans CJK KR';-inkscape-font-specification:'Noto Sans CJK KR Medium'"
       id="path1118" />
    <path
       d="m 718.86121,679.51265 h -4.12534 v -1.94133 h -1.92267 v 1.94133 h -4.14401 v 1.54934 h 10.19202 z m -7.37335,5.50668 c 0,-1.02667 0.93334,-1.66134 2.29601,-1.66134 1.344,0 2.27734,0.63467 2.27734,1.66134 0,1.04533 -0.93334,1.68 -2.27734,1.68 -1.36267,0 -2.29601,-0.63467 -2.29601,-1.68 z m 3.24801,3.08 c 1.904,-0.29866 3.15467,-1.43733 3.15467,-3.08 0,-1.88534 -1.68,-3.13601 -4.10667,-3.13601 -2.44534,0 -4.12534,1.25067 -4.12534,3.13601 0,1.624 1.25067,2.78134 3.15467,3.08 v 1.64267 c -1.58667,0.056 -3.13601,0.056 -4.48001,0.056 l 0.24267,1.58667 c 3.06134,0 7.05601,-0.056 10.77069,-0.69066 l -0.13067,-1.40001 c -1.43734,0.20534 -2.96801,0.29867 -4.48001,0.392 z m 5.43201,-10.56535 v 16.8747 h 1.94134 v -16.8747 z"
       style="font-style:normal;font-variant:normal;font-weight:500;font-stretch:normal;font-size:18.6667px;font-family:'Noto Sans CJK KR';-inkscape-font-specification:'Noto Sans CJK KR Medium'"
       id="path1120" />
  </g>
  <g
     id="g291"
     transform="translate(25.385774,-22.626348)">
    <g
       transform="translate(388,699)"
       id="g70"
       style="font-weight:bold;font-size:16px;font-family:Arial, sans-serif;text-anchor:start;stroke:none">
      <path
         style="stroke:#000000;stroke-width:2"
         d="M -10,20 0,0"
         id="path62" />
    </g>
    <g
       aria-label="3차 분열
(1928, 1931)"
       id="text250"
       style="font-style:normal;font-variant:normal;font-weight:300;font-stretch:normal;font-size:16px;line-height:1.05;font-family:'Noto Sans CJK KR';-inkscape-font-specification:'Noto Sans CJK KR Light';fill:#000000;fill-opacity:1;stroke:none">
      <path
         d="m 324.65485,734.28283 c 2.16,0 3.936,-1.248 3.936,-3.376 0,-1.584 -1.072,-2.608 -2.432,-2.944 v -0.08 c 1.248,-0.464 2.032,-1.408 2.032,-2.768 0,-1.952 -1.488,-3.04 -3.6,-3.04 -1.36,0 -2.448,0.592 -3.376,1.424 l 0.96,1.152 c 0.672,-0.656 1.44,-1.104 2.352,-1.12 1.12,0.016 1.808,0.672 1.808,1.712 0,1.184 -0.768,2.064 -3.088,2.064 v 1.36 c 2.656,0 3.488,0.848 3.488,2.16 0,1.216 -0.912,1.952 -2.24,1.952 -1.216,0 -2.096,-0.592 -2.784,-1.296 l -0.896,1.184 c 0.784,0.88 1.984,1.616 3.84,1.616 z"
         style="font-style:normal;font-variant:normal;font-weight:500;font-stretch:normal;font-size:16px;font-family:'Noto Sans CJK KR';-inkscape-font-specification:'Noto Sans CJK KR Medium';text-align:center;text-anchor:middle"
         id="path1033" />
      <path
         d="m 335.29485,724.61883 h 3.056 v -1.328 h -3.056 v -2.144 h -1.648 v 2.144 h -3.104 v 1.328 h 3.104 v 0.832 c 0,2.368 -1.344,4.8 -3.552,5.856 l 0.912,1.264 c 1.648,-0.768 2.848,-2.352 3.488,-4.224 0.592,1.744 1.744,3.216 3.296,3.968 l 0.912,-1.264 c -2.144,-1.04 -3.408,-3.392 -3.408,-5.6 z m 8.448,2.032 h -2.256 v -5.808 h -1.648 v 14.464 h 1.648 v -7.296 h 2.256 z"
         style="font-style:normal;font-variant:normal;font-weight:500;font-stretch:normal;font-size:16px;font-family:'Noto Sans CJK KR';-inkscape-font-specification:'Noto Sans CJK KR Medium';text-align:center;text-anchor:middle"
         id="path1035" />
      <path
         d="m 359.2468,725.86683 h -6.432 v -1.616 h 6.432 z m 1.632,-4.56 h -1.632 v 1.68 h -6.432 v -1.68 h -1.632 v 5.856 h 9.696 z m -8.144,9.776 h -1.648 v 3.952 h 10.048 v -1.344 h -8.4 z m -3.248,-2.704 v 1.328 h 5.856 v 2.576 h 1.648 v -2.576 h 5.6 v -1.328 z"
         style="font-style:normal;font-variant:normal;font-weight:500;font-stretch:normal;font-size:16px;font-family:'Noto Sans CJK KR';-inkscape-font-specification:'Noto Sans CJK KR Medium';text-align:center;text-anchor:middle"
         id="path1037" />
      <path
         d="m 365.98277,724.61883 c 0,-1.184 0.928,-1.968 2.208,-1.968 1.248,0 2.176,0.784 2.176,1.968 0,1.184 -0.928,1.968 -2.176,1.968 -1.28,0 -2.208,-0.784 -2.208,-1.968 z m 8.544,-0.864 v 1.68 h -2.688 c 0.064,-0.256 0.096,-0.544 0.096,-0.816 0,-0.304 -0.032,-0.592 -0.112,-0.864 z m 0,2.976 v 1.456 h 1.664 v -7.344 h -1.664 v 1.616 h -3.408 c -0.672,-0.736 -1.712,-1.168 -2.928,-1.168 -2.176,0 -3.776,1.376 -3.776,3.328 0,1.936 1.6,3.328 3.776,3.328 1.232,0 2.304,-0.464 2.96,-1.216 z m -6.096,7.104 v -1.28 h 7.76 v -3.68 h -9.408 v 1.28 h 7.776 v 1.184 h -7.76 v 3.792 h 9.872 v -1.296 z"
         style="font-style:normal;font-variant:normal;font-weight:500;font-stretch:normal;font-size:16px;font-family:'Noto Sans CJK KR';-inkscape-font-specification:'Noto Sans CJK KR Medium';text-align:center;text-anchor:middle"
         id="path1039" />
      <path
         d="m 306.69485,754.05883 1.152,-0.512 c -1.376,-2.288 -2.016,-4.992 -2.016,-7.68 0,-2.672 0.64,-5.376 2.016,-7.68 l -1.152,-0.496 c -1.488,2.416 -2.368,5.024 -2.368,8.176 0,3.184 0.88,5.76 2.368,8.192 z"
         style="font-style:normal;font-variant:normal;font-weight:500;font-stretch:normal;font-size:16px;font-family:'Noto Sans CJK KR';-inkscape-font-specification:'Noto Sans CJK KR Medium';text-align:center;text-anchor:middle"
         id="path1041" />
      <path
         d="m 309.95884,750.87483 h 6.72 v -1.52 h -2.304 v -10.256 h -1.392 c -0.672,0.416 -1.456,0.688 -2.56,0.896 v 1.168 h 2.112 v 8.192 h -2.576 z"
         style="font-style:normal;font-variant:normal;font-weight:500;font-stretch:normal;font-size:16px;font-family:'Noto Sans CJK KR';-inkscape-font-specification:'Noto Sans CJK KR Medium';text-align:center;text-anchor:middle"
         id="path1043" />
      <path
         d="m 322.00684,745.11483 c -1.232,0 -1.904,-0.864 -1.904,-2.368 0,-1.536 0.8,-2.448 1.808,-2.448 1.28,0 2.16,1.056 2.336,3.376 -0.704,1.024 -1.52,1.44 -2.24,1.44 z m -3.424,4.72 c 0.688,0.704 1.648,1.248 3.008,1.248 2.272,0 4.384,-1.856 4.384,-6.496 0,-3.888 -1.824,-5.712 -4.08,-5.712 -1.904,0 -3.504,1.536 -3.504,3.872 0,2.464 1.328,3.696 3.296,3.696 0.896,0 1.904,-0.528 2.592,-1.376 -0.112,3.36 -1.344,4.512 -2.768,4.512 -0.752,0 -1.472,-0.352 -1.936,-0.88 z"
         style="font-style:normal;font-variant:normal;font-weight:500;font-stretch:normal;font-size:16px;font-family:'Noto Sans CJK KR';-inkscape-font-specification:'Noto Sans CJK KR Medium';text-align:center;text-anchor:middle"
         id="path1045" />
      <path
         d="m 327.52683,750.87483 h 7.6 v -1.568 h -2.944 c -0.576,0 -1.312,0.048 -1.92,0.112 2.496,-2.384 4.304,-4.736 4.304,-7.008 0,-2.128 -1.392,-3.536 -3.552,-3.536 -1.536,0 -2.576,0.672 -3.584,1.76 l 1.04,1.024 c 0.624,-0.72 1.392,-1.312 2.32,-1.312 1.312,0 2,0.88 2,2.16 0,1.936 -1.792,4.224 -5.264,7.296 z"
         style="font-style:normal;font-variant:normal;font-weight:500;font-stretch:normal;font-size:16px;font-family:'Noto Sans CJK KR';-inkscape-font-specification:'Noto Sans CJK KR Medium';text-align:center;text-anchor:middle"
         id="path1047" />
      <path
         d="m 340.51883,751.08283 c 2.272,0 3.808,-1.344 3.808,-3.088 0,-1.6 -0.928,-2.512 -1.984,-3.12 v -0.08 c 0.736,-0.544 1.552,-1.568 1.552,-2.768 0,-1.84 -1.28,-3.12 -3.328,-3.12 -1.936,0 -3.36,1.2 -3.36,3.04 0,1.248 0.704,2.128 1.584,2.752 v 0.08 c -1.088,0.576 -2.112,1.616 -2.112,3.168 0,1.824 1.632,3.136 3.84,3.136 z m 0.768,-6.752 c -1.312,-0.512 -2.432,-1.104 -2.432,-2.384 0,-1.056 0.72,-1.712 1.68,-1.712 1.152,0 1.808,0.816 1.808,1.904 0,0.784 -0.352,1.536 -1.056,2.192 z m -0.736,5.424 c -1.264,0 -2.24,-0.816 -2.24,-1.984 0,-1.024 0.56,-1.904 1.376,-2.464 1.6,0.656 2.896,1.2 2.896,2.64 0,1.104 -0.832,1.808 -2.032,1.808 z"
         style="font-style:normal;font-variant:normal;font-weight:500;font-stretch:normal;font-size:16px;font-family:'Noto Sans CJK KR';-inkscape-font-specification:'Noto Sans CJK KR Medium';text-align:center;text-anchor:middle"
         id="path1049" />
      <path
         d="m 346.32682,754.07483 c 1.648,-0.624 2.624,-1.92 2.624,-3.6 0,-1.232 -0.528,-1.984 -1.424,-1.984 -0.704,0 -1.28,0.464 -1.28,1.184 0,0.768 0.576,1.184 1.232,1.184 0.064,0 0.112,0 0.176,-0.016 -0.016,0.944 -0.656,1.744 -1.744,2.192 z"
         style="font-style:normal;font-variant:normal;font-weight:500;font-stretch:normal;font-size:16px;font-family:'Noto Sans CJK KR';-inkscape-font-specification:'Noto Sans CJK KR Medium';text-align:center;text-anchor:middle"
         id="path1051" />
      <path
         d="m 354.80677,750.87483 h 6.72 v -1.52 h -2.304 v -10.256 h -1.392 c -0.672,0.416 -1.456,0.688 -2.56,0.896 v 1.168 h 2.112 v 8.192 h -2.576 z"
         style="font-style:normal;font-variant:normal;font-weight:500;font-stretch:normal;font-size:16px;font-family:'Noto Sans CJK KR';-inkscape-font-specification:'Noto Sans CJK KR Medium';text-align:center;text-anchor:middle"
         id="path1053" />
      <path
         d="m 366.85477,745.11483 c -1.232,0 -1.904,-0.864 -1.904,-2.368 0,-1.536 0.8,-2.448 1.808,-2.448 1.28,0 2.16,1.056 2.336,3.376 -0.704,1.024 -1.52,1.44 -2.24,1.44 z m -3.424,4.72 c 0.688,0.704 1.648,1.248 3.008,1.248 2.272,0 4.384,-1.856 4.384,-6.496 0,-3.888 -1.824,-5.712 -4.08,-5.712 -1.904,0 -3.504,1.536 -3.504,3.872 0,2.464 1.328,3.696 3.296,3.696 0.896,0 1.904,-0.528 2.592,-1.376 -0.112,3.36 -1.344,4.512 -2.768,4.512 -0.752,0 -1.472,-0.352 -1.936,-0.88 z"
         style="font-style:normal;font-variant:normal;font-weight:500;font-stretch:normal;font-size:16px;font-family:'Noto Sans CJK KR';-inkscape-font-specification:'Noto Sans CJK KR Medium';text-align:center;text-anchor:middle"
         id="path1055" />
      <path
         d="m 375.95876,751.08283 c 2.16,0 3.936,-1.248 3.936,-3.376 0,-1.584 -1.072,-2.608 -2.432,-2.944 v -0.08 c 1.248,-0.464 2.032,-1.408 2.032,-2.768 0,-1.952 -1.488,-3.04 -3.6,-3.04 -1.36,0 -2.448,0.592 -3.376,1.424 l 0.96,1.152 c 0.672,-0.656 1.44,-1.104 2.352,-1.12 1.12,0.016 1.808,0.672 1.808,1.712 0,1.184 -0.768,2.064 -3.088,2.064 v 1.36 c 2.656,0 3.488,0.848 3.488,2.16 0,1.216 -0.912,1.952 -2.24,1.952 -1.216,0 -2.096,-0.592 -2.784,-1.296 l -0.896,1.184 c 0.784,0.88 1.984,1.616 3.84,1.616 z"
         style="font-style:normal;font-variant:normal;font-weight:500;font-stretch:normal;font-size:16px;font-family:'Noto Sans CJK KR';-inkscape-font-specification:'Noto Sans CJK KR Medium';text-align:center;text-anchor:middle"
         id="path1057" />
      <path
         d="m 382.16676,750.87483 h 6.72 v -1.52 h -2.304 v -10.256 h -1.392 c -0.672,0.416 -1.456,0.688 -2.56,0.896 v 1.168 h 2.112 v 8.192 h -2.576 z"
         style="font-style:normal;font-variant:normal;font-weight:500;font-stretch:normal;font-size:16px;font-family:'Noto Sans CJK KR';-inkscape-font-specification:'Noto Sans CJK KR Medium';text-align:center;text-anchor:middle"
         id="path1059" />
      <path
         d="m 391.79875,754.05883 c 1.504,-2.432 2.384,-5.008 2.384,-8.192 0,-3.152 -0.88,-5.76 -2.384,-8.176 l -1.152,0.496 c 1.376,2.304 2.016,5.008 2.016,7.68 0,2.688 -0.64,5.392 -2.016,7.68 z"
         style="font-style:normal;font-variant:normal;font-weight:500;font-stretch:normal;font-size:16px;font-family:'Noto Sans CJK KR';-inkscape-font-specification:'Noto Sans CJK KR Medium';text-align:center;text-anchor:middle"
         id="path1061" />
    </g>
  </g>
  <g
     id="g284"
     transform="translate(24.88948,-22.626348)">
    <path
       style="font-weight:bold;font-size:16px;font-family:Arial, sans-serif;text-anchor:start;stroke:#000000;stroke-width:2"
       d="m 248,684 10,-20"
       id="path52" />
    <g
       aria-label="2차 분열
(1916, 1919)"
       id="text250-9"
       style="font-style:normal;font-variant:normal;font-weight:500;font-stretch:normal;font-size:16px;line-height:1.05;font-family:'Noto Sans CJK KR';-inkscape-font-specification:'Noto Sans CJK KR Medium';fill:#000000;fill-opacity:1;stroke:none">
      <path
         d="m 191.57145,699.82251 h 7.6 v -1.568 h -2.944 c -0.576,0 -1.312,0.048 -1.92,0.112 2.496,-2.384 4.304,-4.736 4.304,-7.008 0,-2.128 -1.392,-3.536 -3.552,-3.536 -1.536,0 -2.576,0.672 -3.584,1.76 l 1.04,1.024 c 0.624,-0.72 1.392,-1.312 2.32,-1.312 1.312,0 2,0.88 2,2.16 0,1.936 -1.792,4.224 -5.264,7.296 z"
         style="font-style:normal;font-variant:normal;font-weight:500;font-stretch:normal;font-size:16px;font-family:'Noto Sans CJK KR';-inkscape-font-specification:'Noto Sans CJK KR Medium';text-align:center;text-anchor:middle"
         id="path983" />
      <path
         d="m 205.79544,690.36651 h 3.056 v -1.328 h -3.056 v -2.144 h -1.648 v 2.144 h -3.104 v 1.328 h 3.104 v 0.832 c 0,2.368 -1.344,4.8 -3.552,5.856 l 0.912,1.264 c 1.648,-0.768 2.848,-2.352 3.488,-4.224 0.592,1.744 1.744,3.216 3.296,3.968 l 0.912,-1.264 c -2.144,-1.04 -3.408,-3.392 -3.408,-5.6 z m 8.448,2.032 h -2.256 v -5.808 h -1.648 v 14.464 h 1.648 v -7.296 h 2.256 z"
         style="font-style:normal;font-variant:normal;font-weight:500;font-stretch:normal;font-size:16px;font-family:'Noto Sans CJK KR';-inkscape-font-specification:'Noto Sans CJK KR Medium';text-align:center;text-anchor:middle"
         id="path985" />
      <path
         d="m 229.74739,691.61451 h -6.432 v -1.616 h 6.432 z m 1.632,-4.56 h -1.632 v 1.68 h -6.432 v -1.68 h -1.632 v 5.856 h 9.696 z m -8.144,9.776 h -1.648 v 3.952 h 10.048 v -1.344 h -8.4 z m -3.248,-2.704 v 1.328 h 5.856 v 2.576 h 1.648 v -2.576 h 5.6 v -1.328 z"
         style="font-style:normal;font-variant:normal;font-weight:500;font-stretch:normal;font-size:16px;font-family:'Noto Sans CJK KR';-inkscape-font-specification:'Noto Sans CJK KR Medium';text-align:center;text-anchor:middle"
         id="path987" />
      <path
         d="m 236.48336,690.36651 c 0,-1.184 0.928,-1.968 2.208,-1.968 1.248,0 2.176,0.784 2.176,1.968 0,1.184 -0.928,1.968 -2.176,1.968 -1.28,0 -2.208,-0.784 -2.208,-1.968 z m 8.544,-0.864 v 1.68 h -2.688 c 0.064,-0.256 0.096,-0.544 0.096,-0.816 0,-0.304 -0.032,-0.592 -0.112,-0.864 z m 0,2.976 v 1.456 h 1.664 v -7.344 h -1.664 v 1.616 h -3.408 c -0.672,-0.736 -1.712,-1.168 -2.928,-1.168 -2.176,0 -3.776,1.376 -3.776,3.328 0,1.936 1.6,3.328 3.776,3.328 1.232,0 2.304,-0.464 2.96,-1.216 z m -6.096,7.104 v -1.28 h 7.76 v -3.68 h -9.408 v 1.28 h 7.776 v 1.184 h -7.76 v 3.792 h 9.872 v -1.296 z"
         style="font-style:normal;font-variant:normal;font-weight:500;font-stretch:normal;font-size:16px;font-family:'Noto Sans CJK KR';-inkscape-font-specification:'Noto Sans CJK KR Medium';text-align:center;text-anchor:middle"
         id="path989" />
      <path
         d="m 177.19544,719.80651 1.152,-0.512 c -1.376,-2.288 -2.016,-4.992 -2.016,-7.68 0,-2.672 0.64,-5.376 2.016,-7.68 l -1.152,-0.496 c -1.488,2.416 -2.368,5.024 -2.368,8.176 0,3.184 0.88,5.76 2.368,8.192 z"
         style="font-style:normal;font-variant:normal;font-weight:500;font-stretch:normal;font-size:16px;font-family:'Noto Sans CJK KR';-inkscape-font-specification:'Noto Sans CJK KR Medium';text-align:center;text-anchor:middle"
         id="path991" />
      <path
         d="m 180.45944,716.62251 h 6.72 v -1.52 h -2.304 v -10.256 h -1.392 c -0.672,0.416 -1.456,0.688 -2.56,0.896 v 1.168 h 2.112 v 8.192 h -2.576 z"
         style="font-style:normal;font-variant:normal;font-weight:500;font-stretch:normal;font-size:16px;font-family:'Noto Sans CJK KR';-inkscape-font-specification:'Noto Sans CJK KR Medium';text-align:center;text-anchor:middle"
         id="path993" />
      <path
         d="m 192.50743,710.86251 c -1.232,0 -1.904,-0.864 -1.904,-2.368 0,-1.536 0.8,-2.448 1.808,-2.448 1.28,0 2.16,1.056 2.336,3.376 -0.704,1.024 -1.52,1.44 -2.24,1.44 z m -3.424,4.72 c 0.688,0.704 1.648,1.248 3.008,1.248 2.272,0 4.384,-1.856 4.384,-6.496 0,-3.888 -1.824,-5.712 -4.08,-5.712 -1.904,0 -3.504,1.536 -3.504,3.872 0,2.464 1.328,3.696 3.296,3.696 0.896,0 1.904,-0.528 2.592,-1.376 -0.112,3.36 -1.344,4.512 -2.768,4.512 -0.752,0 -1.472,-0.352 -1.936,-0.88 z"
         style="font-style:normal;font-variant:normal;font-weight:500;font-stretch:normal;font-size:16px;font-family:'Noto Sans CJK KR';-inkscape-font-specification:'Noto Sans CJK KR Medium';text-align:center;text-anchor:middle"
         id="path995" />
      <path
         d="m 198.69943,716.62251 h 6.72 v -1.52 h -2.304 v -10.256 h -1.392 c -0.672,0.416 -1.456,0.688 -2.56,0.896 v 1.168 h 2.112 v 8.192 h -2.576 z"
         style="font-style:normal;font-variant:normal;font-weight:500;font-stretch:normal;font-size:16px;font-family:'Noto Sans CJK KR';-inkscape-font-specification:'Noto Sans CJK KR Medium';text-align:center;text-anchor:middle"
         id="path997" />
      <path
         d="m 211.33942,715.42251 c -1.264,0 -2.112,-1.104 -2.304,-3.44 0.704,-1.008 1.504,-1.376 2.192,-1.376 1.264,0 1.936,0.848 1.936,2.368 0,1.52 -0.8,2.448 -1.824,2.448 z m 3.344,-9.536 c -0.672,-0.704 -1.632,-1.264 -2.944,-1.264 -2.32,0 -4.448,1.808 -4.448,6.336 0,4 1.824,5.872 4.064,5.872 1.92,0 3.52,-1.52 3.52,-3.856 0,-2.496 -1.328,-3.712 -3.312,-3.712 -0.848,0 -1.872,0.512 -2.56,1.36 0.08,-3.36 1.328,-4.496 2.832,-4.496 0.688,0 1.408,0.368 1.84,0.88 z"
         style="font-style:normal;font-variant:normal;font-weight:500;font-stretch:normal;font-size:16px;font-family:'Noto Sans CJK KR';-inkscape-font-specification:'Noto Sans CJK KR Medium';text-align:center;text-anchor:middle"
         id="path999" />
      <path
         d="m 216.82742,719.82251 c 1.648,-0.624 2.624,-1.92 2.624,-3.6 0,-1.232 -0.528,-1.984 -1.424,-1.984 -0.704,0 -1.28,0.464 -1.28,1.184 0,0.768 0.576,1.184 1.232,1.184 0.064,0 0.112,0 0.176,-0.016 -0.016,0.944 -0.656,1.744 -1.744,2.192 z"
         style="font-style:normal;font-variant:normal;font-weight:500;font-stretch:normal;font-size:16px;font-family:'Noto Sans CJK KR';-inkscape-font-specification:'Noto Sans CJK KR Medium';text-align:center;text-anchor:middle"
         id="path1001" />
      <path
         d="m 225.30737,716.62251 h 6.72 v -1.52 h -2.304 v -10.256 h -1.392 c -0.672,0.416 -1.456,0.688 -2.56,0.896 v 1.168 h 2.112 v 8.192 h -2.576 z"
         style="font-style:normal;font-variant:normal;font-weight:500;font-stretch:normal;font-size:16px;font-family:'Noto Sans CJK KR';-inkscape-font-specification:'Noto Sans CJK KR Medium';text-align:center;text-anchor:middle"
         id="path1003" />
      <path
         d="m 237.35536,710.86251 c -1.232,0 -1.904,-0.864 -1.904,-2.368 0,-1.536 0.8,-2.448 1.808,-2.448 1.28,0 2.16,1.056 2.336,3.376 -0.704,1.024 -1.52,1.44 -2.24,1.44 z m -3.424,4.72 c 0.688,0.704 1.648,1.248 3.008,1.248 2.272,0 4.384,-1.856 4.384,-6.496 0,-3.888 -1.824,-5.712 -4.08,-5.712 -1.904,0 -3.504,1.536 -3.504,3.872 0,2.464 1.328,3.696 3.296,3.696 0.896,0 1.904,-0.528 2.592,-1.376 -0.112,3.36 -1.344,4.512 -2.768,4.512 -0.752,0 -1.472,-0.352 -1.936,-0.88 z"
         style="font-style:normal;font-variant:normal;font-weight:500;font-stretch:normal;font-size:16px;font-family:'Noto Sans CJK KR';-inkscape-font-specification:'Noto Sans CJK KR Medium';text-align:center;text-anchor:middle"
         id="path1005" />
      <path
         d="m 243.54736,716.62251 h 6.72 v -1.52 h -2.304 v -10.256 h -1.392 c -0.672,0.416 -1.456,0.688 -2.56,0.896 v 1.168 h 2.112 v 8.192 h -2.576 z"
         style="font-style:normal;font-variant:normal;font-weight:500;font-stretch:normal;font-size:16px;font-family:'Noto Sans CJK KR';-inkscape-font-specification:'Noto Sans CJK KR Medium';text-align:center;text-anchor:middle"
         id="path1007" />
      <path
         d="m 255.59535,710.86251 c -1.232,0 -1.904,-0.864 -1.904,-2.368 0,-1.536 0.8,-2.448 1.808,-2.448 1.28,0 2.16,1.056 2.336,3.376 -0.704,1.024 -1.52,1.44 -2.24,1.44 z m -3.424,4.72 c 0.688,0.704 1.648,1.248 3.008,1.248 2.272,0 4.384,-1.856 4.384,-6.496 0,-3.888 -1.824,-5.712 -4.08,-5.712 -1.904,0 -3.504,1.536 -3.504,3.872 0,2.464 1.328,3.696 3.296,3.696 0.896,0 1.904,-0.528 2.592,-1.376 -0.112,3.36 -1.344,4.512 -2.768,4.512 -0.752,0 -1.472,-0.352 -1.936,-0.88 z"
         style="font-style:normal;font-variant:normal;font-weight:500;font-stretch:normal;font-size:16px;font-family:'Noto Sans CJK KR';-inkscape-font-specification:'Noto Sans CJK KR Medium';text-align:center;text-anchor:middle"
         id="path1009" />
      <path
         d="m 262.29935,719.80651 c 1.504,-2.432 2.384,-5.008 2.384,-8.192 0,-3.152 -0.88,-5.76 -2.384,-8.176 l -1.152,0.496 c 1.376,2.304 2.016,5.008 2.016,7.68 0,2.688 -0.64,5.392 -2.016,7.68 z"
         style="font-style:normal;font-variant:normal;font-weight:500;font-stretch:normal;font-size:16px;font-family:'Noto Sans CJK KR';-inkscape-font-specification:'Noto Sans CJK KR Medium';text-align:center;text-anchor:middle"
         id="path1011" />
    </g>
  </g>
  <g
     aria-label="워치타워협회
국제성서연구생"
     id="text208-3"
     style="font-style:normal;font-variant:normal;font-weight:500;font-stretch:normal;font-size:17.3333px;line-height:1.05;font-family:'Noto Sans CJK KR';-inkscape-font-specification:'Noto Sans CJK KR Medium';fill:#000000;fill-opacity:1;stroke:none">
    <path
       d="m 36.251842,599.29973 c 1.126664,0 1.88933,0.572 1.88933,1.54267 0,0.98799 -0.762666,1.54266 -1.88933,1.54266 -1.126665,0 -1.923996,-0.55467 -1.923996,-1.54266 0,-0.97067 0.797331,-1.54267 1.923996,-1.54267 z m 0,4.81866 c 2.339995,0 4.038659,-1.33466 4.038659,-3.27599 0,-1.924 -1.698664,-3.276 -4.038659,-3.276 -2.357329,0 -4.055992,1.352 -4.055992,3.276 0,1.94133 1.698663,3.27599 4.055992,3.27599 z m 5.09599,0.416 c -3.397327,0.468 -7.297319,0.48533 -10.261313,0.48533 l 0.259999,1.85466 c 1.109331,0 2.357329,0 3.657326,-0.052 v 5.58133 h 2.287996 v -5.70266 c 1.386664,-0.104 2.790661,-0.24266 4.194658,-0.50266 z m 1.022665,-7.62665 v 10.72931 h -3.206661 v 1.73333 h 3.206661 v 3.48399 h 2.287995 v -15.94663 z"
       style="font-style:normal;font-variant:normal;font-weight:bold;font-stretch:normal;font-size:17.3333px;font-family:'Noto Sans CJK KR';-inkscape-font-specification:'Noto Sans CJK KR Bold';fill:#808080"
       id="path956" />
    <path
       d="m 53.307777,601.32773 h 3.25866 v -1.82 h -3.25866 v -2.21866 h -2.287996 v 2.21866 h -3.327993 v 1.82 h 3.327993 v 0.55466 c 0,2.42667 -1.247997,5.13066 -3.865326,6.30933 l 1.230665,1.75066 c 1.819996,-0.81467 3.10266,-2.444 3.813326,-4.36799 0.710665,1.81999 1.975996,3.34532 3.778659,4.09066 l 1.213331,-1.75067 c -2.617328,-1.12666 -3.882659,-3.72666 -3.882659,-6.03199 z m 4.731991,-4.41999 v 15.96397 h 2.287995 v -15.96397 z"
       style="font-style:normal;font-variant:normal;font-weight:bold;font-stretch:normal;font-size:17.3333px;font-family:'Noto Sans CJK KR';-inkscape-font-specification:'Noto Sans CJK KR Bold';fill:#808080"
       id="path958" />
    <path
       d="m 65.94372,604.46506 h 4.991991 v -1.78533 H 65.94372 v -2.6 h 5.217324 v -1.85466 h -7.505319 v 11.04131 h 1.351997 c 2.738662,0 4.887991,-0.0693 7.314653,-0.43333 l -0.208,-1.82 c -2.079996,0.312 -3.917326,0.39867 -6.170655,0.416 z m 11.907977,-1.508 h -2.322662 v -6.04932 h -2.287996 v 15.9813 h 2.287996 v -8.04265 h 2.322662 z"
       style="font-style:normal;font-variant:normal;font-weight:bold;font-stretch:normal;font-size:17.3333px;font-family:'Noto Sans CJK KR';-inkscape-font-specification:'Noto Sans CJK KR Bold';fill:#808080"
       id="path960" />
    <path
       d="m 84.091655,599.29973 c 1.126665,0 1.88933,0.572 1.88933,1.54267 0,0.98799 -0.762665,1.54266 -1.88933,1.54266 -1.126664,0 -1.923996,-0.55467 -1.923996,-1.54266 0,-0.97067 0.797332,-1.54267 1.923996,-1.54267 z m 0,4.81866 c 2.339996,0 4.038659,-1.33466 4.038659,-3.27599 0,-1.924 -1.698663,-3.276 -4.038659,-3.276 -2.357329,0 -4.055992,1.352 -4.055992,3.276 0,1.94133 1.698663,3.27599 4.055992,3.27599 z m 5.09599,0.416 c -3.397327,0.468 -7.297319,0.48533 -10.261313,0.48533 l 0.259999,1.85466 c 1.109331,0 2.357329,0 3.657327,-0.052 v 5.58133 h 2.287995 v -5.70266 c 1.386664,-0.104 2.790661,-0.24266 4.194659,-0.50266 z m 1.022665,-7.62665 v 10.72931 h -3.206661 v 1.73333 h 3.206661 v 3.48399 h 2.287995 v -15.94663 z"
       style="font-style:normal;font-variant:normal;font-weight:bold;font-stretch:normal;font-size:17.3333px;font-family:'Noto Sans CJK KR';-inkscape-font-specification:'Noto Sans CJK KR Bold';fill:#808080"
       id="path962" />
    <path
       d="m 103.73025,598.25973 h -3.11999 v -1.47333 h -2.288 v 1.47333 h -3.345327 v 1.80267 h 8.753317 z m -5.875989,5.16533 c 0,-0.79733 0.641332,-1.21333 1.611997,-1.21333 0.953332,0 1.611992,0.416 1.611992,1.21333 0,0.81466 -0.65866,1.23066 -1.611992,1.23066 -0.970665,0 -1.611997,-0.416 -1.611997,-1.23066 z m 5.338659,0 c 0,-1.716 -1.54267,-2.89466 -3.726662,-2.89466 -2.201329,0 -3.743993,1.17866 -3.743993,2.89466 0,1.73333 1.542664,2.91199 3.743993,2.91199 2.183992,0 3.726662,-1.17866 3.726662,-2.91199 z m 2.82533,7.50532 h -6.170659 v -1.07467 h 6.170659 z m 0,-2.756 h -6.170659 v -1.16133 h -2.253329 v 5.66799 h 10.677308 v -5.66799 h -2.25332 z m -0.0347,-11.26664 v 3.39732 h -2.04533 v 1.82 h 2.04533 v 1.33466 h -2.08 v 1.82 h 2.08 v 1.144 h 2.28799 v -9.51598 z"
       style="font-style:normal;font-variant:normal;font-weight:bold;font-stretch:normal;font-size:17.3333px;font-family:'Noto Sans CJK KR';-inkscape-font-specification:'Noto Sans CJK KR Bold';fill:#808080"
       id="path964" />
    <path
       d="m 120.85552,598.67573 h -3.64 v -1.71599 h -2.28799 v 1.71599 h -3.65733 v 1.78533 h 9.58532 z m -6.56932,5.42533 c 0,-0.832 0.72799,-1.28267 1.78533,-1.28267 1.07466,0 1.78533,0.45067 1.78533,1.28267 0,0.81466 -0.71067,1.26533 -1.78533,1.26533 -1.05734,0 -1.78533,-0.45067 -1.78533,-1.26533 z m 2.92932,2.87732 c 1.69867,-0.32933 2.808,-1.40399 2.808,-2.87732 0,-1.80267 -1.62933,-3.016 -3.95199,-3.016 -2.34,0 -3.96933,1.21333 -3.96933,3.016 0,1.47333 1.10933,2.54799 2.82533,2.87732 v 1.352 c -1.42133,0.0347 -2.77333,0.0347 -3.96933,0.0347 l 0.27733,1.85466 c 2.82533,0 6.51733,-0.0173 10.00132,-0.65866 l -0.17333,-1.64667 c -1.248,0.17334 -2.548,0.26 -3.848,0.32934 z m 4.67999,-10.07064 v 15.96397 h 2.288 v -15.96397 z"
       style="font-style:normal;font-variant:normal;font-weight:bold;font-stretch:normal;font-size:17.3333px;font-family:'Noto Sans CJK KR';-inkscape-font-specification:'Noto Sans CJK KR Bold';fill:#808080"
       id="path966" />
    <path
       d="m 45.59449,623.11569 v -1.82 h -2.010662 c 0.311999,-1.69866 0.311999,-3.03333 0.311999,-4.22933 V 615.7837 H 32.923848 v 1.83733 h 8.71865 c 0,1.05733 -0.052,2.21866 -0.346666,3.67466 H 31.138518 v 1.82 h 6.066655 v 2.25332 h -4.610657 v 1.80267 h 9.030649 v 3.89999 h 2.305329 v -5.70266 h -4.437325 v -2.25332 z"
       style="font-style:normal;font-variant:normal;font-weight:bold;font-stretch:normal;font-size:17.3333px;font-family:'Noto Sans CJK KR';-inkscape-font-specification:'Noto Sans CJK KR Bold';fill:#808080"
       id="path968" />
    <path
       d="m 52.146446,618.55703 h 2.322662 v -1.85467 h -7.106653 v 1.85467 h 2.565328 v 0.78 c 0,2.73866 -0.831998,5.59865 -3.15466,7.07198 l 1.351997,1.68133 c 1.438664,-0.90133 2.374662,-2.46133 2.929328,-4.28132 0.519999,1.68133 1.42133,3.06799 2.842661,3.89999 l 1.334664,-1.664 c -2.305329,-1.35199 -3.085327,-4.03866 -3.085327,-6.70798 z m 3.241327,1.99333 h -2.027996 v 1.85466 h 2.027996 v 7.93865 h 2.131996 V 615.3677 h -2.131996 z m 3.223993,-5.45999 v 15.96397 h 2.166663 v -15.96397 z"
       style="font-style:normal;font-variant:normal;font-weight:bold;font-stretch:normal;font-size:17.3333px;font-family:'Noto Sans CJK KR';-inkscape-font-specification:'Noto Sans CJK KR Bold';fill:#808080"
       id="path970" />
    <path
       d="m 74.090371,624.46768 h 2.287996 v -9.35998 h -2.287996 v 2.912 h -2.911994 v 1.85466 h 2.911994 z m -1.455997,-2.30533 c -2.530662,-0.81466 -3.57066,-2.75599 -3.57066,-4.90532 v -1.31733 h -2.322662 v 1.42133 c 0,2.20133 -1.126664,4.36799 -3.847992,5.23466 l 1.195997,1.83733 c 1.88933,-0.64134 3.154661,-1.924 3.865326,-3.55333 0.675999,1.42133 1.802663,2.51333 3.483993,3.08533 z m -1.646663,7.15866 c -2.09733,0 -3.189328,-0.43334 -3.189328,-1.33467 0,-0.91866 1.091998,-1.35199 3.189328,-1.35199 2.079995,0 3.171993,0.43333 3.171993,1.35199 0,0.90133 -1.091998,1.33467 -3.171993,1.33467 z m 0,-4.45466 c -3.397327,0 -5.477323,1.144 -5.477323,3.11999 0,1.94133 2.079996,3.08533 5.477323,3.08533 3.379993,0 5.459989,-1.144 5.459989,-3.08533 0,-1.97599 -2.079996,-3.11999 -5.459989,-3.11999 z"
       style="font-style:normal;font-variant:normal;font-weight:bold;font-stretch:normal;font-size:17.3333px;font-family:'Noto Sans CJK KR';-inkscape-font-specification:'Noto Sans CJK KR Bold';fill:#808080"
       id="path972" />
    <path
       d="m 84.975653,616.33837 h -2.305328 v 2.30532 c 0,3.03333 -1.213331,6.13599 -3.917326,7.38399 l 1.42133,1.83733 c 1.78533,-0.90133 2.981328,-2.56533 3.67466,-4.61066 0.658665,1.924 1.819996,3.484 3.57066,4.33333 l 1.351997,-1.82 c -2.634662,-1.17866 -3.795993,-4.10799 -3.795993,-7.12399 z m 5.113324,-1.248 v 5.00932 h -3.067994 v 1.83733 h 3.067994 v 9.16932 h 2.287995 v -16.01597 z"
       style="font-style:normal;font-variant:normal;font-weight:bold;font-stretch:normal;font-size:17.3333px;font-family:'Noto Sans CJK KR';-inkscape-font-specification:'Noto Sans CJK KR Bold';fill:#808080"
       id="path974" />
    <path
       d="m 97.299596,620.18636 c 0,-1.31733 0.866665,-2.132 2.027996,-2.132 1.178668,0 2.045328,0.81467 2.045328,2.132 0,1.33466 -0.86666,2.14933 -2.045328,2.14933 -1.161331,0 -2.027996,-0.81467 -2.027996,-2.14933 z m 8.683984,-1.04 v 2.06266 h -2.56533 c 0.0867,-0.312 0.12133,-0.676 0.12133,-1.02266 0,-0.364 -0.052,-0.71067 -0.12133,-1.04 z m 0,3.88266 v 3.76133 h 2.28799 V 615.1077 h -2.28799 v 2.21866 h -3.55333 c -0.78,-0.79733 -1.85466,-1.26533 -3.102658,-1.26533 -2.357329,0 -4.194659,1.75067 -4.194659,4.12533 0,2.39199 1.83733,4.14266 4.194659,4.14266 1.247998,0 2.357328,-0.48534 3.137328,-1.3 z m -5.94532,5.94532 v -3.32799 h -2.287999 v 5.14799 h 10.885309 v -1.82 z"
       style="font-style:normal;font-variant:normal;font-weight:bold;font-stretch:normal;font-size:17.3333px;font-family:'Noto Sans CJK KR';-inkscape-font-specification:'Noto Sans CJK KR Bold';fill:#808080"
       id="path976" />
    <path
       d="m 125.31017,622.82102 h -2.09733 c 0.39867,-2.236 0.39867,-3.86533 0.39867,-5.35599 v -1.43866 h -11.07598 v 1.83733 h 8.83999 c 0,1.36933 -0.0347,2.92932 -0.43334,4.95732 h -10.05331 v 1.83733 h 5.96265 v 6.41332 h 2.32267 v -6.41332 h 6.13598 z"
       style="font-style:normal;font-variant:normal;font-weight:bold;font-stretch:normal;font-size:17.3333px;font-family:'Noto Sans CJK KR';-inkscape-font-specification:'Noto Sans CJK KR Bold';fill:#808080"
       id="path978" />
    <path
       d="m 137.01013,620.82769 h 1.24799 v 4.03866 h 2.16667 v -9.75865 h -2.16667 v 3.88266 h -1.24799 v -3.58799 h -2.132 v 8.96131 h 2.132 z m -2.14933,1.36933 c -2.09733,-0.84933 -2.964,-2.56533 -2.964,-4.28132 v -1.85467 h -2.20133 v 1.85467 c 0,1.80266 -0.86666,3.77865 -3.10266,4.74932 l 1.21333,1.768 c 1.47333,-0.624 2.46133,-1.768 3.03333,-3.12 0.572,1.144 1.49066,2.09733 2.80799,2.61733 z m 0.156,7.15865 c -2.08,0 -3.224,-0.416 -3.224,-1.26533 0,-0.84933 1.144,-1.26533 3.224,-1.26533 2.04533,0 3.18932,0.416 3.18932,1.26533 0,0.84933 -1.14399,1.26533 -3.18932,1.26533 z m 0,-4.24666 c -3.36266,0 -5.51199,1.12667 -5.51199,2.98133 0,1.872 2.14933,2.99866 5.51199,2.99866 3.34532,0 5.47732,-1.12666 5.47732,-2.99866 0,-1.85466 -2.132,-2.98133 -5.47732,-2.98133 z"
       style="font-style:normal;font-variant:normal;font-weight:bold;font-stretch:normal;font-size:17.3333px;font-family:'Noto Sans CJK KR';-inkscape-font-specification:'Noto Sans CJK KR Bold';fill:#808080"
       id="path980" />
  </g>
  <g
     id="g954">
    <g
       id="g305"
       transform="translate(25.393186,-23.618937)">
      <path
         style="font-weight:bold;font-size:16px;font-family:Arial, sans-serif;text-anchor:start;stroke:#000000;stroke-width:2"
         d="M 68,684 78,664"
         id="path42" />
      <g
         aria-label="첫 분열 (1909)"
         id="text208-7"
         style="font-style:normal;font-variant:normal;font-weight:bold;font-stretch:normal;font-size:16px;line-height:1.05;font-family:'Noto Sans CJK KR';-inkscape-font-specification:'Noto Sans CJK KR Bold';fill:#000000;fill-opacity:1;stroke:none" />
    </g>
    <g
       aria-label="첫 분열
(1909)"
       id="text59"
       style="font-style:normal;font-weight:normal;font-size:16px;line-height:1.05;font-family:sans-serif;fill:#000000;fill-opacity:1;stroke:none">
      <path
         d="m 55.490686,665.5518 v 1.344 h 2.592 v 4.608 h 1.648 v -9.936 h -1.648 v 3.984 z m 0.784,3.04 c -2.192,-0.656 -3.424,-2.256 -3.424,-3.904 v -0.192 h 3.04 v -1.328 h -3.024 v -1.648 h -1.664 v 1.648 h -3.04 v 1.328 h 3.04 v 0.192 c 0,1.824 -1.248,3.568 -3.456,4.272 l 0.8,1.28 c 1.68,-0.544 2.896,-1.68 3.52,-3.152 0.64,1.28 1.824,2.304 3.456,2.784 z m -0.432,2.016 h -1.696 v 0.272 c 0,1.728 -1.936,3.376 -4.704,3.808 l 0.624,1.296 c 2.256,-0.352 4.048,-1.488 4.928,-3.008 0.864,1.536 2.672,2.64 4.944,3.008 l 0.64,-1.296 c -2.816,-0.432 -4.736,-2.016 -4.736,-3.808 z"
         style="font-style:normal;font-variant:normal;font-weight:500;font-stretch:normal;font-size:16px;font-family:'Noto Sans CJK KR';-inkscape-font-specification:'Noto Sans CJK KR Medium'"
         id="path1014" />
      <path
         d="m 76.706637,666.5918 h -6.432 v -1.616 h 6.432 z m 1.632,-4.56 h -1.632 v 1.68 h -6.432 v -1.68 h -1.632 v 5.856 h 9.696 z m -8.144,9.776 h -1.648 v 3.952 h 10.048 v -1.344 h -8.4 z m -3.248,-2.704 v 1.328 h 5.856 v 2.576 h 1.648 v -2.576 h 5.6 v -1.328 z"
         style="font-style:normal;font-variant:normal;font-weight:500;font-stretch:normal;font-size:16px;font-family:'Noto Sans CJK KR';-inkscape-font-specification:'Noto Sans CJK KR Medium'"
         id="path1016" />
      <path
         d="m 83.442608,665.3438 c 0,-1.184 0.928,-1.968 2.208,-1.968 1.248,0 2.176,0.784 2.176,1.968 0,1.184 -0.928,1.968 -2.176,1.968 -1.28,0 -2.208,-0.784 -2.208,-1.968 z m 8.544,-0.864 v 1.68 h -2.688 c 0.064,-0.256 0.096,-0.544 0.096,-0.816 0,-0.304 -0.032,-0.592 -0.112,-0.864 z m 0,2.976 v 1.456 h 1.664 v -7.344 h -1.664 v 1.616 h -3.408 c -0.672,-0.736 -1.712,-1.168 -2.928,-1.168 -2.176,0 -3.776,1.376 -3.776,3.328 0,1.936 1.6,3.328 3.776,3.328 1.232,0 2.304,-0.464 2.96,-1.216 z m -6.096,7.104 v -1.28 h 7.76 v -3.68 h -9.408 v 1.28 h 7.776 v 1.184 h -7.76 v 3.792 h 9.872 v -1.296 z"
         style="font-style:normal;font-variant:normal;font-weight:500;font-stretch:normal;font-size:16px;font-family:'Noto Sans CJK KR';-inkscape-font-specification:'Noto Sans CJK KR Medium'"
         id="path1018" />
      <path
         d="m 50.738686,696.26652 1.152,-0.512 c -1.376,-2.288 -2.016,-4.992 -2.016,-7.68 0,-2.672 0.64,-5.376 2.016,-7.68 l -1.152,-0.496 c -1.488,2.416 -2.368,5.024 -2.368,8.176 0,3.184 0.88,5.76 2.368,8.192 z"
         style="font-style:normal;font-variant:normal;font-weight:500;font-stretch:normal;font-size:16px;font-family:'Noto Sans CJK KR';-inkscape-font-specification:'Noto Sans CJK KR Medium'"
         id="path1020" />
      <path
         d="m 54.002678,693.08252 h 6.72 v -1.52 h -2.304 v -10.256 h -1.392 c -0.672,0.416 -1.456,0.688 -2.56,0.896 v 1.168 h 2.112 v 8.192 h -2.576 z"
         style="font-style:normal;font-variant:normal;font-weight:500;font-stretch:normal;font-size:16px;font-family:'Noto Sans CJK KR';-inkscape-font-specification:'Noto Sans CJK KR Medium'"
         id="path1022" />
      <path
         d="m 66.050674,687.32252 c -1.232,0 -1.904,-0.864 -1.904,-2.368 0,-1.536 0.8,-2.448 1.808,-2.448 1.28,0 2.16,1.056 2.336,3.376 -0.704,1.024 -1.52,1.44 -2.24,1.44 z m -3.424,4.72 c 0.688,0.704 1.648,1.248 3.008,1.248 2.272,0 4.384,-1.856 4.384,-6.496 0,-3.888 -1.824,-5.712 -4.08,-5.712 -1.904,0 -3.504,1.536 -3.504,3.872 0,2.464 1.328,3.696 3.296,3.696 0.896,0 1.904,-0.528 2.592,-1.376 -0.112,3.36 -1.344,4.512 -2.768,4.512 -0.752,0 -1.472,-0.352 -1.936,-0.88 z"
         style="font-style:normal;font-variant:normal;font-weight:500;font-stretch:normal;font-size:16px;font-family:'Noto Sans CJK KR';-inkscape-font-specification:'Noto Sans CJK KR Medium'"
         id="path1024" />
      <path
         d="m 75.426669,693.29052 c 2.304,0 3.808,-2.048 3.808,-6.144 0,-4.064 -1.504,-6.064 -3.808,-6.064 -2.32,0 -3.808,1.984 -3.808,6.064 0,4.096 1.488,6.144 3.808,6.144 z m 0,-1.456 c -1.2,0 -2.048,-1.28 -2.048,-4.688 0,-3.376 0.848,-4.608 2.048,-4.608 1.2,0 2.048,1.232 2.048,4.608 0,3.408 -0.848,4.688 -2.048,4.688 z"
         style="font-style:normal;font-variant:normal;font-weight:500;font-stretch:normal;font-size:16px;font-family:'Noto Sans CJK KR';-inkscape-font-specification:'Noto Sans CJK KR Medium'"
         id="path1026" />
      <path
         d="m 84.290664,687.32252 c -1.232,0 -1.904,-0.864 -1.904,-2.368 0,-1.536 0.8,-2.448 1.808,-2.448 1.28,0 2.16,1.056 2.336,3.376 -0.704,1.024 -1.52,1.44 -2.24,1.44 z m -3.424,4.72 c 0.688,0.704 1.648,1.248 3.008,1.248 2.272,0 4.384,-1.856 4.384,-6.496 0,-3.888 -1.824,-5.712 -4.08,-5.712 -1.904,0 -3.504,1.536 -3.504,3.872 0,2.464 1.328,3.696 3.296,3.696 0.896,0 1.904,-0.528 2.592,-1.376 -0.112,3.36 -1.344,4.512 -2.768,4.512 -0.752,0 -1.472,-0.352 -1.936,-0.88 z"
         style="font-style:normal;font-variant:normal;font-weight:500;font-stretch:normal;font-size:16px;font-family:'Noto Sans CJK KR';-inkscape-font-specification:'Noto Sans CJK KR Medium'"
         id="path1028" />
      <path
         d="m 90.994659,696.26652 c 1.504,-2.432 2.384,-5.008 2.384,-8.192 0,-3.152 -0.88,-5.76 -2.384,-8.176 l -1.152,0.496 c 1.376,2.304 2.016,5.008 2.016,7.68 0,2.688 -0.64,5.392 -2.016,7.68 z"
         style="font-style:normal;font-variant:normal;font-weight:500;font-stretch:normal;font-size:16px;font-family:'Noto Sans CJK KR';-inkscape-font-specification:'Noto Sans CJK KR Medium'"
         id="path1030" />
    </g>
  </g>
  <g
     aria-label="자유성서연구생"
     id="text152-9-2"
     style="font-style:normal;font-variant:normal;font-weight:500;font-stretch:normal;font-size:18.6667px;line-height:1.25;font-family:'Noto Sans CJK KR';-inkscape-font-specification:'Noto Sans CJK KR Medium';fill:#000000;fill-opacity:1;stroke:none">
    <path
       d="m 628.56516,742.20314 h 3.56534 v -1.58667 h -9.16535 v 1.58667 h 3.67734 v 1.624 c 0,2.80001 -1.71734,5.99202 -4.29334,7.22402 l 1.10133,1.53067 c 1.94134,-0.952 3.43467,-2.96801 4.18134,-5.32001 0.76534,2.128 2.20267,3.99467 4.08801,4.89067 l 1.064,-1.512 c -2.55734,-1.21334 -4.21867,-4.20001 -4.21867,-6.81335 z m 9.78135,3.37867 h -2.63201 v -6.64534 h -1.92267 v 16.85603 h 1.92267 v -8.62402 h 2.63201 z"
       style="font-style:normal;font-variant:normal;font-weight:500;font-stretch:normal;font-size:18.6667px;font-family:'Noto Sans CJK KR';-inkscape-font-specification:'Noto Sans CJK KR Medium';fill:#008000"
       id="path1123" />
    <path
       d="m 647.43716,741.10181 c 2.408,0 3.99467,0.82133 3.99467,2.16533 0,1.36267 -1.58667,2.18401 -3.99467,2.18401 -2.42667,0 -4.01334,-0.82134 -4.01334,-2.18401 0,-1.344 1.58667,-2.16533 4.01334,-2.16533 z m 0,5.89867 c 3.54667,0 5.97334,-1.456 5.97334,-3.73334 0,-2.25867 -2.42667,-3.71467 -5.97334,-3.71467 -3.56534,0 -5.99201,1.456 -5.99201,3.71467 0,2.27734 2.42667,3.73334 5.99201,3.73334 z m 7.67201,1.43734 h -15.28803 v 1.58667 h 3.73334 v 5.76801 h 1.96001 v -5.76801 h 3.84534 v 5.76801 h 1.96 v -5.76801 h 3.80801 z"
       style="font-style:normal;font-variant:normal;font-weight:500;font-stretch:normal;font-size:18.6667px;font-family:'Noto Sans CJK KR';-inkscape-font-specification:'Noto Sans CJK KR Medium';fill:#008000"
       id="path1125" />
    <path
       d="m 669.05316,748.86715 h 1.92267 v -9.94935 h -1.92267 v 3.37868 h -3.416 v 1.568 h 3.416 z m -2.03467,-2.184 c -2.55734,-0.84 -3.95734,-2.94934 -3.95734,-5.28268 v -1.568 h -1.94134 v 1.66134 c 0,2.464 -1.47467,4.74134 -4.18134,5.65601 l 1.008,1.54933 c 2.03468,-0.728 3.45334,-2.20267 4.20001,-4.06934 0.728,1.64267 2.03467,2.91201 3.84534,3.56534 z m -1.66134,7.59735 c -2.38933,0 -3.752,-0.616 -3.752,-1.71734 0,-1.10133 1.36267,-1.71734 3.752,-1.71734 2.38934,0 3.77068,0.61601 3.77068,1.71734 0,1.10134 -1.38134,1.71734 -3.77068,1.71734 z m 0,-4.94668 c -3.50933,0 -5.67467,1.19467 -5.67467,3.22934 0,2.03467 2.16534,3.22934 5.67467,3.22934 3.52801,0 5.69335,-1.19467 5.69335,-3.22934 0,-2.03467 -2.16534,-3.22934 -5.69335,-3.22934 z"
       style="font-style:normal;font-variant:normal;font-weight:500;font-stretch:normal;font-size:18.6667px;font-family:'Noto Sans CJK KR';-inkscape-font-specification:'Noto Sans CJK KR Medium';fill:#008000"
       id="path1127" />
    <path
       d="m 680.29048,740.29914 h -1.94134 v 2.78134 c 0,3.15467 -1.64267,6.40267 -4.27467,7.69068 l 1.21333,1.53067 c 1.92267,-0.98934 3.30401,-2.94934 4.05068,-5.33868 0.728,2.25867 2.09067,4.10667 3.99467,5.05868 l 1.13867,-1.54934 c -2.576,-1.19467 -4.18134,-4.25601 -4.18134,-7.39201 z m 5.95468,-1.4 v 5.54401 h -3.60268 v 1.568 h 3.60268 v 9.80002 h 1.94133 v -16.91203 z"
       style="font-style:normal;font-variant:normal;font-weight:500;font-stretch:normal;font-size:18.6667px;font-family:'Noto Sans CJK KR';-inkscape-font-specification:'Noto Sans CJK KR Medium';fill:#008000"
       id="path1129" />
    <path
       d="m 693.41314,744.25648 c 0,-1.53067 1.10133,-2.57601 2.576,-2.57601 1.43734,0 2.53867,1.04534 2.53867,2.57601 0,1.568 -1.10133,2.61334 -2.53867,2.61334 -1.47467,0 -2.576,-1.04534 -2.576,-2.61334 z m 9.98668,-1.25067 v 2.50134 h -3.22934 c 0.13067,-0.392 0.18667,-0.80267 0.18667,-1.25067 0,-0.448 -0.056,-0.85867 -0.18667,-1.25067 z m 0,4.06934 v 4.27467 h 1.92267 v -12.39468 h -1.92267 v 2.48267 h -4.05067 c -0.784,-0.896 -1.97867,-1.45601 -3.36001,-1.45601 -2.50134,0 -4.40534,1.79201 -4.40534,4.27468 0,2.48267 1.904,4.27467 4.40534,4.27467 1.38134,0.0187 2.57601,-0.54133 3.36001,-1.456 z m -7.07468,6.83201 v -3.808 h -1.92267 v 5.37601 h 11.34936 v -1.56801 z"
       style="font-style:normal;font-variant:normal;font-weight:500;font-stretch:normal;font-size:18.6667px;font-family:'Noto Sans CJK KR';-inkscape-font-specification:'Noto Sans CJK KR Medium';fill:#008000"
       id="path1131" />
    <path
       d="m 723.78383,747.16848 h -2.35201 c 0.42934,-2.38933 0.42934,-4.144 0.42934,-5.73067 v -1.47467 h -11.49869 v 1.54933 h 9.61335 c 0,1.54934 0,3.30401 -0.48533,5.65601 h -10.95736 v 1.58667 h 6.58935 v 7.03735 h 1.94133 v -7.03735 h 6.72002 z"
       style="font-style:normal;font-variant:normal;font-weight:500;font-stretch:normal;font-size:18.6667px;font-family:'Noto Sans CJK KR';-inkscape-font-specification:'Noto Sans CJK KR Medium';fill:#008000"
       id="path1133" />
    <path
       d="m 736.36514,744.83515 h 1.77334 v 4.46134 h 1.82934 v -10.34135 h -1.82934 v 4.312 h -1.77334 v -4.01334 h -1.81067 v 9.50135 h 1.81067 z m -2.20267,1.82933 c -2.184,-0.85867 -3.28534,-2.70667 -3.28534,-4.57334 v -2.128 h -1.86667 v 2.128 c 0,1.92267 -1.13867,4.03201 -3.39734,5.05868 l 1.00801,1.47467 c 1.624,-0.70934 2.72533,-2.01601 3.34133,-3.56534 0.63467,1.344 1.68001,2.464 3.17334,3.04267 z m 0.18667,7.65335 c -2.37067,0 -3.78934,-0.57867 -3.78934,-1.60534 0,-1.04533 1.41867,-1.624 3.78934,-1.624 2.37067,0 3.78934,0.57867 3.78934,1.624 0,1.02667 -1.41867,1.60534 -3.78934,1.60534 z m 0,-4.70401 c -3.50934,0 -5.71201,1.15734 -5.71201,3.09867 0,1.92267 2.20267,3.08001 5.71201,3.08001 3.50934,0 5.71201,-1.15734 5.71201,-3.08001 0,-1.94133 -2.20267,-3.09867 -5.71201,-3.09867 z"
       style="font-style:normal;font-variant:normal;font-weight:500;font-stretch:normal;font-size:18.6667px;font-family:'Noto Sans CJK KR';-inkscape-font-specification:'Noto Sans CJK KR Medium';fill:#008000"
       id="path1135" />
  </g>
  <path
     style="fill:none;stroke:#808080;stroke-width:6.04587;stroke-linecap:butt;stroke-linejoin:miter;stroke-miterlimit:4"
     d="M 26.393186,640.38107 H 286.32261 l 35.53723,35 h 98.48888"
     id="path12" />
</svg>
