<svg id="레이어_2" data-name="레이어 2" xmlns="http://www.w3.org/2000/svg" viewBox="0 0 180 45"><defs><style>.cls-1{fill:#4469f0;}</style></defs><path class="cls-1" d="M21.9,31.7,35.36,13.62c.55-.68.41-2.75.41-2.75H21.18V7.48H38.36c1.42,0,1.15,2.7,1.15,2.7l0,3.4L25.78,32.13s-.76,1,.29,1h9.81c1.52-.1,5.92-.56,5.92-.56V36a39.28,39.28,0,0,1-6,.6H21.43l0-3.36A2.58,2.58,0,0,1,21.9,31.7Z"/><rect class="cls-1" x="45.47" y="6.38" width="5.05" height="32.25"/><path class="cls-1" d="M55.83,35.83a.91.91,0,0,0,1,.89h30.7s.48.14.5-.64V33.83s0-.66-.55-.66H56.75a.79.79,0,0,0-.92.85Z"/><path class="cls-1" d="M88,11.15V7.67H55.83v3.48h7.36V23H55.83v3.51H88V23.12l-7.36-.07.14-12ZM76.85,22.22s0,.88-.81.88H67.75s-.82.11-.82-.86V11.87s-.16-.71.67-.71h8.46a.75.75,0,0,1,.78.83Z"/><path class="cls-1" d="M109.9,8.81a11.33,11.33,0,0,0-6.4-1.91s-4.24-.11-6.56,1.61a10.49,10.49,0,0,0-3.49,4.27,9.06,9.06,0,0,0-.36,2.08s0,4.52,3,6.42A11.71,11.71,0,0,0,102,23.39a14.41,14.41,0,0,0,3.56-.16s3.24-.45,5-2.22a7.18,7.18,0,0,0,2.73-5.51A7.84,7.84,0,0,0,109.9,8.81Zm-.8,8.29s-1.26,3.13-5.82,3.22c0,0-6.15.41-6.34-5,0,0-.24-5.6,6.34-5.23,0,0,4.8-.33,6.06,3.85A8.18,8.18,0,0,1,109.1,17.1Z"/><path class="cls-1" d="M145,36.51l2.24-6.33c1-2.34.88-9,.88-9V7.52H129.92V11l14.45,0s.09,7.34-.18,8.25l-14.27,0v3.48l14.13.05s.19,4.76-.7,7.13l-2.65,6.72h1.24"/><rect class="cls-1" x="153.77" y="6.38" width="5.05" height="32.25"/><rect class="cls-1" x="117.95" y="6.38" width="5.05" height="32.25"/><polygon class="cls-1" points="101.16 36.95 105.65 36.95 106.23 29.84 114.81 29.86 114.81 26.42 92.12 26.42 92.12 29.86 100.88 29.86 101.16 36.95"/></svg>